<svg xmlns="http://www.w3.org/2000/svg" xmlns:xlink="http://www.w3.org/1999/xlink" width="793" zoomAndPan="magnify" viewBox="0 0 594.95996 842.24997" height="1122" preserveAspectRatio="xMidYMid meet" version="1.0"><defs><clipPath id="id1"><path d="M 10.953125 267.03125 L 583.703125 267.03125 L 583.703125 840.792969 L 10.953125 840.792969 Z M 10.953125 267.03125 " clip-rule="nonzero"/></clipPath></defs><path fill="#dc9202" d="M 120.179688 133.027344 C 121.226562 134.953125 122.640625 136.714844 124.410156 138.191406 L 124.5 138.257812 C 158.542969 163.832031 184.609375 193.777344 195.15625 226.875 C 196.476562 231.015625 197.5625 235.199219 198.394531 239.414062 C 198.023438 238.101562 197.632812 236.796875 197.21875 235.496094 C 186.550781 202.007812 160.238281 171.675781 125.796875 145.804688 C 121.914062 142.566406 119.980469 137.765625 120.179688 133.027344 Z M 474.472656 133.027344 C 474.675781 137.765625 472.742188 142.566406 468.859375 145.804688 C 434.414062 171.675781 408.105469 202.007812 397.4375 235.496094 C 397.019531 236.796875 396.628906 238.101562 396.257812 239.414062 C 397.089844 235.199219 398.179688 231.015625 399.5 226.875 C 410.042969 193.777344 436.109375 163.832031 470.15625 138.257812 L 470.246094 138.191406 C 472.015625 136.714844 473.429688 134.953125 474.472656 133.027344 " fill-opacity="1" fill-rule="evenodd"/><path fill="#fcc201" d="M 379.75 279.800781 C 377.726562 275.273438 376.144531 270.386719 375.652344 265.839844 C 375.316406 262.777344 375.097656 259.71875 374.988281 256.664062 L 374.988281 256.660156 C 374.289062 237.46875 377.914062 218.441406 385.125 199.710938 C 397.160156 168.429688 419.425781 138.378906 448.75 111.207031 L 448.832031 111.132812 C 456.238281 104.957031 467.035156 106.054688 472.933594 113.566406 C 476.601562 118.238281 477.511719 124.3125 475.863281 129.710938 C 474.878906 132.925781 472.988281 135.898438 470.246094 138.191406 L 470.15625 138.257812 C 436.109375 163.832031 410.042969 193.777344 399.5 226.875 C 396.855469 235.179688 395.140625 243.644531 394.550781 252.214844 C 394.292969 255.921875 393.824219 261.710938 394.457031 273.304688 C 394.59375 275.867188 395.148438 280.339844 395.695312 285.117188 C 390.453125 283.191406 385.136719 281.421875 379.75 279.800781 Z M 198.957031 285.117188 C 199.507812 280.339844 200.0625 275.867188 200.199219 273.304688 C 200.832031 261.710938 200.363281 255.921875 200.105469 252.214844 C 199.515625 243.644531 197.800781 235.179688 195.15625 226.875 C 184.609375 193.777344 158.542969 163.832031 124.5 138.257812 L 124.410156 138.191406 C 121.667969 135.898438 119.773438 132.925781 118.792969 129.710938 C 117.140625 124.3125 118.050781 118.238281 121.71875 113.566406 C 127.617188 106.054688 138.417969 104.957031 145.820312 111.132812 L 145.902344 111.207031 C 175.226562 138.378906 197.496094 168.429688 209.53125 199.710938 C 216.738281 218.441406 220.367188 237.46875 219.664062 256.660156 L 219.664062 256.664062 C 219.558594 259.71875 219.339844 262.777344 219.003906 265.839844 C 218.507812 270.386719 216.925781 275.273438 214.90625 279.800781 L 214.734375 279.851562 C 209.550781 281.417969 204.40625 283.132812 199.316406 284.984375 L 198.957031 285.117188 " fill-opacity="1" fill-rule="evenodd"/><path fill="#fff77a" d="M 198.640625 185.789062 C 186.066406 160.671875 166.914062 136.585938 143.011719 114.429688 C 137.507812 109.875 129.503906 110.671875 125.125 116.246094 C 123.808594 117.925781 122.964844 119.84375 122.578125 121.832031 L 122.730469 121.667969 L 122.882812 121.515625 L 123.109375 121.28125 L 123.308594 121.085938 L 123.53125 120.875 L 123.683594 120.734375 L 123.835938 120.601562 L 123.984375 120.472656 C 124.121094 120.351562 124.253906 120.242188 124.394531 120.125 L 124.566406 119.988281 L 124.777344 119.820312 L 125.023438 119.636719 L 125.1875 119.519531 L 125.351562 119.40625 L 125.414062 119.359375 C 125.761719 119.121094 126.117188 118.898438 126.476562 118.683594 L 126.710938 118.550781 L 126.882812 118.453125 L 127.027344 118.378906 C 127.515625 118.113281 128.015625 117.878906 128.527344 117.667969 L 128.765625 117.574219 L 128.914062 117.515625 C 129.394531 117.328125 129.886719 117.171875 130.378906 117.03125 L 130.632812 116.960938 L 131.015625 116.867188 L 131.078125 116.851562 C 131.480469 116.757812 131.882812 116.679688 132.289062 116.613281 L 132.554688 116.574219 L 132.847656 116.535156 L 133.039062 116.511719 L 133.234375 116.492188 L 133.410156 116.476562 C 133.683594 116.453125 133.957031 116.433594 134.230469 116.421875 L 134.554688 116.414062 L 134.800781 116.410156 L 135.09375 116.410156 L 135.289062 116.414062 L 135.488281 116.421875 L 135.574219 116.425781 C 135.777344 116.433594 135.984375 116.445312 136.183594 116.460938 L 136.414062 116.480469 L 136.722656 116.511719 L 137.054688 116.550781 L 137.347656 116.589844 L 137.742188 116.652344 L 137.832031 116.667969 C 137.933594 116.6875 138.035156 116.707031 138.136719 116.726562 L 138.367188 116.773438 L 138.648438 116.835938 L 138.972656 116.914062 L 139.296875 116.996094 L 139.582031 117.074219 L 139.777344 117.132812 L 139.960938 117.191406 L 140.179688 117.261719 L 140.460938 117.355469 L 140.761719 117.464844 L 141.058594 117.578125 L 141.574219 117.792969 L 141.945312 117.957031 L 142.152344 118.054688 L 142.421875 118.1875 L 142.710938 118.332031 L 142.996094 118.488281 L 143.222656 118.613281 L 143.496094 118.769531 L 143.671875 118.875 L 143.847656 118.984375 L 144.046875 119.105469 L 144.242188 119.234375 L 144.484375 119.398438 L 144.757812 119.589844 L 144.980469 119.75 L 145.402344 120.070312 L 145.570312 120.207031 L 145.734375 120.339844 C 145.765625 120.363281 145.792969 120.386719 145.820312 120.410156 L 145.902344 120.484375 L 146.421875 120.960938 L 146.675781 121.203125 L 146.933594 121.441406 L 147.441406 121.921875 L 147.699219 122.160156 L 147.953125 122.402344 L 148.464844 122.882812 L 148.972656 123.363281 L 149.476562 123.84375 L 149.730469 124.082031 L 149.980469 124.324219 L 150.484375 124.808594 L 150.683594 125 C 150.882812 125.195312 151.082031 125.386719 151.285156 125.578125 L 151.6875 125.964844 C 151.886719 126.164062 152.085938 126.355469 152.285156 126.550781 L 152.675781 126.9375 C 152.878906 127.128906 153.078125 127.328125 153.277344 127.523438 L 153.664062 127.90625 C 153.863281 128.101562 154.0625 128.296875 154.261719 128.496094 L 154.648438 128.882812 C 154.847656 129.078125 155.046875 129.277344 155.238281 129.472656 L 155.621094 129.855469 C 155.820312 130.050781 156.015625 130.253906 156.214844 130.453125 L 156.59375 130.835938 C 156.789062 131.035156 156.988281 131.234375 157.179688 131.433594 L 157.554688 131.8125 C 157.75 132.011719 157.945312 132.210938 158.140625 132.414062 L 158.511719 132.792969 C 158.707031 132.996094 158.902344 133.199219 159.097656 133.402344 L 159.457031 133.777344 C 159.65625 133.984375 159.855469 134.191406 160.046875 134.394531 L 160.402344 134.761719 C 160.597656 134.96875 160.792969 135.175781 160.992188 135.382812 L 161.339844 135.75 C 161.539062 135.960938 161.734375 136.167969 161.929688 136.375 L 162.269531 136.738281 C 162.464844 136.949219 162.664062 137.160156 162.863281 137.371094 L 163.195312 137.730469 C 163.394531 137.945312 163.589844 138.15625 163.785156 138.371094 L 164.109375 138.722656 C 164.308594 138.9375 164.507812 139.152344 164.707031 139.371094 L 165.019531 139.71875 C 165.21875 139.933594 165.421875 140.15625 165.617188 140.371094 L 165.925781 140.714844 C 166.128906 140.933594 166.324219 141.15625 166.523438 141.378906 C 178.824219 155.074219 189.308594 169.339844 197.628906 183.988281 L 197.84375 184.371094 C 197.972656 184.59375 198.097656 184.816406 198.222656 185.039062 L 198.492188 185.523438 Z M 396.015625 185.789062 C 408.589844 160.671875 427.742188 136.585938 451.644531 114.429688 C 457.148438 109.875 465.152344 110.671875 469.527344 116.246094 C 470.847656 117.925781 471.691406 119.84375 472.074219 121.832031 L 471.921875 121.667969 L 471.769531 121.515625 L 471.542969 121.28125 L 471.347656 121.085938 L 471.121094 120.875 L 470.972656 120.734375 L 470.820312 120.601562 L 470.671875 120.472656 C 470.535156 120.351562 470.402344 120.242188 470.261719 120.125 L 470.085938 119.988281 L 469.875 119.820312 L 469.628906 119.636719 L 469.46875 119.519531 L 469.300781 119.40625 L 469.242188 119.359375 C 468.890625 119.121094 468.539062 118.898438 468.179688 118.683594 L 467.945312 118.550781 L 467.773438 118.453125 L 467.628906 118.378906 C 467.140625 118.113281 466.636719 117.878906 466.128906 117.667969 L 465.890625 117.574219 L 465.742188 117.515625 C 465.257812 117.328125 464.769531 117.171875 464.273438 117.03125 L 464.023438 116.960938 L 463.828125 116.914062 L 463.640625 116.867188 L 463.574219 116.851562 C 463.171875 116.757812 462.769531 116.679688 462.367188 116.613281 L 462.101562 116.574219 L 461.808594 116.535156 L 461.617188 116.511719 L 461.421875 116.492188 L 461.246094 116.476562 C 460.972656 116.453125 460.699219 116.433594 460.425781 116.421875 L 460.101562 116.414062 L 459.855469 116.410156 L 459.558594 116.410156 L 459.363281 116.414062 L 459.167969 116.421875 L 459.082031 116.425781 C 458.878906 116.433594 458.671875 116.445312 458.46875 116.460938 L 458.238281 116.480469 L 457.933594 116.511719 L 457.597656 116.550781 L 457.304688 116.589844 L 456.914062 116.652344 L 456.824219 116.667969 C 456.722656 116.6875 456.621094 116.707031 456.519531 116.726562 L 456.289062 116.773438 L 456.007812 116.835938 L 455.683594 116.914062 L 455.359375 116.996094 L 455.074219 117.074219 L 454.878906 117.132812 L 454.691406 117.191406 L 454.472656 117.261719 L 454.191406 117.355469 L 453.894531 117.464844 L 453.597656 117.578125 L 453.359375 117.675781 L 453.078125 117.792969 L 452.710938 117.957031 L 452.5 118.054688 L 452.230469 118.1875 L 451.941406 118.332031 L 451.660156 118.488281 L 451.433594 118.613281 L 451.160156 118.769531 L 450.980469 118.875 L 450.804688 118.984375 L 450.609375 119.105469 L 450.414062 119.234375 L 450.171875 119.398438 L 449.894531 119.589844 L 449.675781 119.75 L 449.417969 119.941406 L 449.253906 120.070312 L 449.085938 120.207031 L 448.917969 120.339844 C 448.890625 120.363281 448.863281 120.386719 448.832031 120.410156 L 448.75 120.484375 L 448.234375 120.960938 L 447.976562 121.203125 L 447.722656 121.441406 L 447.210938 121.921875 L 446.703125 122.402344 L 446.191406 122.882812 L 445.175781 123.84375 L 444.675781 124.324219 L 444.171875 124.808594 L 443.972656 125 C 443.769531 125.195312 443.570312 125.386719 443.367188 125.578125 L 442.96875 125.964844 C 442.769531 126.164062 442.570312 126.355469 442.371094 126.550781 L 441.976562 126.9375 C 441.777344 127.128906 441.578125 127.328125 441.378906 127.523438 L 440.988281 127.90625 C 440.789062 128.101562 440.59375 128.296875 440.394531 128.496094 L 440.007812 128.882812 C 439.808594 129.078125 439.609375 129.277344 439.414062 129.472656 L 439.03125 129.855469 C 438.835938 130.050781 438.640625 130.253906 438.441406 130.453125 L 438.0625 130.835938 C 437.867188 131.035156 437.667969 131.234375 437.476562 131.433594 L 437.101562 131.8125 C 436.90625 132.011719 436.710938 132.210938 436.511719 132.414062 L 436.144531 132.792969 C 435.949219 132.996094 435.753906 133.199219 435.554688 133.402344 L 435.195312 133.777344 C 434.996094 133.984375 434.800781 134.191406 434.605469 134.394531 L 434.253906 134.761719 C 434.054688 134.96875 433.859375 135.175781 433.660156 135.382812 L 433.316406 135.75 C 433.117188 135.960938 432.921875 136.167969 432.722656 136.375 L 432.386719 136.738281 C 432.1875 136.949219 431.988281 137.160156 431.792969 137.371094 L 431.460938 137.730469 C 431.261719 137.945312 431.066406 138.15625 430.871094 138.371094 L 430.546875 138.722656 C 430.34375 138.9375 430.148438 139.152344 429.949219 139.371094 L 429.632812 139.71875 C 429.433594 139.933594 429.234375 140.15625 429.035156 140.371094 L 428.726562 140.714844 C 428.527344 140.933594 428.328125 141.15625 428.128906 141.378906 C 415.832031 155.074219 405.347656 169.339844 397.027344 183.988281 L 396.808594 184.371094 C 396.683594 184.59375 396.554688 184.816406 396.429688 185.039062 L 396.164062 185.523438 L 396.015625 185.789062 " fill-opacity="1" fill-rule="evenodd"/><g clip-path="url(#id1)"><path fill="#ffb404" d="M 10.953125 554.273438 C 10.953125 396.128906 139.273438 267.738281 297.328125 267.738281 C 455.382812 267.738281 583.703125 396.128906 583.703125 554.273438 C 583.703125 712.417969 455.382812 840.8125 297.328125 840.8125 C 139.273438 840.8125 10.953125 712.417969 10.953125 554.273438 Z M 44.683594 554.273438 C 44.683594 414.757812 157.886719 301.480469 297.328125 301.480469 C 436.765625 301.480469 549.972656 414.757812 549.972656 554.273438 C 549.972656 693.792969 436.765625 807.0625 297.328125 807.0625 C 157.886719 807.0625 44.683594 693.792969 44.683594 554.273438 " fill-opacity="1" fill-rule="evenodd"/></g><path fill="#fcc201" d="M 24.574219 554.273438 C 24.742188 629.519531 55.371094 697.652344 104.824219 746.886719 C 154.1875 796.03125 222.261719 826.363281 297.328125 826.15625 C 372.21875 825.90625 440.050781 795.382812 488.949219 746.007812 C 537.679688 696.796875 567.617188 628.953125 567.183594 554.273438 C 566.761719 525.21875 561.882812 497.265625 552.898438 471.191406 C 538.984375 430.8125 515.523438 394.96875 485.449219 366.042969 C 455.648438 337.390625 419.207031 315.867188 378.855469 303.191406 C 353.101562 295.101562 325.765625 290.40625 297.328125 290.449219 C 268.828125 290.046875 241.351562 294.304688 215.480469 302.210938 C 174.847656 314.636719 138.289062 336.402344 108.238281 365.078125 C 58.175781 412.859375 26.5 479.671875 24.574219 554.273438 Z M 44.683594 554.273438 C 44.683594 414.757812 157.886719 301.480469 297.328125 301.480469 C 436.765625 301.480469 549.972656 414.757812 549.972656 554.273438 C 549.972656 693.792969 436.765625 807.0625 297.328125 807.0625 C 157.886719 807.0625 44.683594 693.792969 44.683594 554.273438 " fill-opacity="1" fill-rule="evenodd"/><path fill="#f663fd" d="M 205.507812 1.089844 C 206.503906 0.285156 207.722656 0.0390625 208.644531 0.121094 C 267.378906 5.425781 326.503906 5.582031 385.996094 0.121094 C 387.550781 -0.0234375 388.171875 0.308594 389.144531 1.089844 L 477.761719 72.324219 C 479.4375 73.671875 479.703125 75.101562 479.75 75.441406 C 479.804688 75.835938 480.089844 77.449219 478.144531 79.496094 C 448.472656 110.695312 300.449219 266.328125 300.449219 266.328125 C 299.515625 267.308594 297.820312 267.738281 297.261719 267.738281 C 296.828125 267.738281 294.988281 267.308594 294.054688 266.324219 L 116.050781 79.019531 C 114.757812 77.65625 114.484375 75.617188 115.386719 73.964844 C 115.671875 73.433594 116.054688 72.984375 116.507812 72.628906 L 205.507812 1.089844 " fill-opacity="1" fill-rule="evenodd"/><path fill="#fab1fe" d="M 220.984375 93.804688 L 292.933594 244.3125 L 292.988281 96.597656 C 268.925781 96.558594 244.921875 95.632812 220.984375 93.804688 Z M 373.824219 93.441406 C 373.824219 93.441406 349.902344 95.125 337.957031 95.644531 C 329.949219 95.992188 321.9375 96.246094 313.921875 96.40625 C 310.03125 96.484375 301.65625 96.574219 301.65625 96.574219 L 301.59375 244.308594 Z M 281.546875 240.585938 L 210.992188 92.988281 C 210.992188 92.988281 201.441406 92.121094 196.9375 91.660156 C 188.136719 90.761719 179.351562 89.738281 170.582031 88.597656 C 161.792969 87.453125 153.023438 86.179688 144.273438 84.789062 C 139.996094 84.101562 135.722656 83.390625 131.457031 82.652344 Z M 312.984375 240.574219 L 463.332031 82.5 C 436.761719 86.871094 410.261719 90.25 383.832031 92.597656 Z M 286.730469 87.898438 L 254.304688 55.929688 L 223.773438 85.324219 C 244.710938 86.875 265.703125 87.730469 286.730469 87.898438 Z M 371.023438 84.964844 L 340.496094 55.777344 L 307.980469 87.835938 L 307.992188 87.835938 C 318.410156 87.6875 328.824219 87.382812 339.234375 86.914062 C 349.679688 86.4375 371.023438 84.964844 371.023438 84.964844 Z M 329.304688 54.644531 C 318.488281 55.195312 307.800781 55.523438 297.34375 55.574219 C 286.589844 55.625 276.054688 55.398438 265.648438 54.941406 L 297.324219 86.175781 Z M 202.023438 83.457031 L 163.453125 46.011719 L 129.289062 73.476562 C 129.289062 73.476562 137.320312 74.875 141.203125 75.511719 C 149.183594 76.820312 157.183594 78.03125 165.195312 79.128906 C 173.195312 80.234375 181.207031 81.230469 189.234375 82.121094 C 193.355469 82.582031 202.023438 83.457031 202.023438 83.457031 Z M 465.257812 73.394531 L 431.1875 46.003906 L 392.859375 83.046875 C 416.933594 80.675781 441.066406 77.453125 465.257812 73.394531 Z M 176.199219 46.308594 L 213.84375 82.855469 L 244.15625 53.671875 C 221.566406 52.011719 199.253906 49.394531 176.199219 46.308594 Z M 418.480469 46.242188 C 396.199219 49.085938 373.203125 51.605469 350.453125 53.308594 L 380.96875 82.488281 Z M 330.191406 45.921875 L 297.335938 14.496094 L 264.398438 46.207031 C 275.203125 46.710938 286.136719 46.960938 297.304688 46.90625 C 308.058594 46.855469 319.0625 46.507812 330.191406 45.921875 Z M 243.128906 44.90625 L 207.960938 10.230469 L 174.28125 37.308594 C 197.679688 40.46875 220.277344 43.179688 243.128906 44.90625 Z M 420.316406 37.265625 L 386.6875 10.230469 L 351.925781 44.503906 C 374.832031 42.746094 397.960938 40.160156 420.316406 37.265625 Z M 219.828125 9.761719 L 254.375 43.828125 L 286.640625 12.765625 C 264.320312 12.515625 242.046875 11.507812 219.828125 9.761719 Z M 374.804688 9.777344 C 352.507812 11.546875 330.265625 12.535156 308.066406 12.773438 L 340.40625 43.695312 L 374.804688 9.777344 " fill-opacity="1" fill-rule="evenodd"/></svg>